<?xml version="1.0" encoding="utf-8"?><svg xml:space="preserve" viewBox="0 0 100 100" y="0" x="0" xmlns="http://www.w3.org/2000/svg" id="圖層_1" version="1.1" xmlns:xlink="http://www.w3.org/1999/xlink" style="width:10%;height:10%;background-size:initial;background-repeat-y:initial;background-repeat-x:initial;background-position-y:initial;background-position-x:initial;background-origin:initial;background-color:initial;background-clip:initial;background-attachment:initial;animation-play-state:paused" ><g class="ldl-scale" style="transform-origin:50% 50%;transform:rotate(0deg) scale(1, 1);animation-play-state:paused" ><circle fill="#333" r="40" cy="50" cx="50" style="fill:rgb(51, 51, 51);animation-play-state:paused" ></circle>
<path fill="#fff" d="M54.062 46.078l.237-.657c1.899-5.272.575-11.23-3.373-15.179-5.656-5.656-14.858-5.656-20.515 0-5.656 5.656-5.656 14.858 0 20.515a14.482 14.482 0 0 0 14.568 3.588l.635-.197 5.204 5.203h6.651v4.535h4.535v4.535h4.535V74l6.472-.715.822-7.436-19.771-19.771zm-19.97-6.259a4.17 4.17 0 1 1 5.897-5.896 4.17 4.17 0 0 1-5.897 5.896z" style="fill:rgb(255, 255, 255);animation-play-state:paused" ></path>
<metadata xmlns:d="https://loading.io/stock/" style="animation-play-state:paused" ><d:name style="animation-play-state:paused" >key</d:name>


<d:tags style="animation-play-state:paused" >key,unlock,access,token,secret,password,door</d:tags>


<d:license style="animation-play-state:paused" >by</d:license>


<d:slug style="animation-play-state:paused" >hyywqr</d:slug></metadata></g><!-- generated by https://loading.io/ --></svg>